<svg xmlns="http://www.w3.org/2000/svg" width="17" height="17" viewBox="0 0 17 17" fill="none">
  <path d="M14.5929 1.92149C14.547 1.87106 14.4914 1.83046 14.4294 1.80214C14.3673 1.77383 14.3002 1.75838 14.2321 1.75673C14.1639 1.75509 14.0961 1.76728 14.0328 1.79258C13.9695 1.81787 13.9119 1.85574 13.8637 1.9039L13.4751 2.29052C13.4281 2.33764 13.4016 2.40152 13.4016 2.46813C13.4016 2.53474 13.4281 2.59863 13.4751 2.64574L13.8313 3.00127C13.8547 3.02473 13.8824 3.04334 13.913 3.05604C13.9435 3.06874 13.9763 3.07528 14.0094 3.07528C14.0425 3.07528 14.0752 3.06874 14.1058 3.05604C14.1364 3.04334 14.1641 3.02473 14.1875 3.00127L14.5662 2.62438C14.7578 2.43311 14.7757 2.12155 14.5929 1.92149Z" fill="black"/>
  <path d="M12.693 3.06939L7.04971 8.70267C7.0155 8.73675 6.99063 8.77906 6.9775 8.82553L6.71647 9.60299C6.71021 9.62409 6.70977 9.64648 6.71518 9.66781C6.7206 9.68914 6.73167 9.7086 6.74723 9.72416C6.76278 9.73972 6.78225 9.75079 6.80358 9.75621C6.82491 9.76162 6.8473 9.76118 6.8684 9.75492L7.64524 9.49389C7.69171 9.48076 7.73402 9.45589 7.76809 9.42168L13.4014 3.77777C13.4535 3.72509 13.4827 3.65399 13.4827 3.57989C13.4827 3.50579 13.4535 3.43468 13.4014 3.382L13.0903 3.06939C13.0376 3.0168 12.9661 2.98726 12.8917 2.98726C12.8172 2.98726 12.7457 3.0168 12.693 3.06939Z" fill="black"/>
  <path d="M12.2864 6.30948L8.47647 10.1269C8.32922 10.2745 8.14824 10.384 7.94917 10.446L7.13962 10.717C6.94749 10.7713 6.74438 10.7733 6.5512 10.7229C6.35801 10.6726 6.18176 10.5716 6.04059 10.4304C5.89943 10.2893 5.79845 10.113 5.74808 9.91981C5.6977 9.72663 5.69975 9.52352 5.75401 9.33139L6.025 8.52184C6.08681 8.32283 6.19613 8.14185 6.34351 7.99454L10.1609 4.18402C10.1959 4.14907 10.2197 4.10452 10.2294 4.05602C10.2391 4.00752 10.2342 3.95723 10.2153 3.91153C10.1964 3.86583 10.1643 3.82676 10.1232 3.79926C10.0821 3.77176 10.0338 3.75707 9.9843 3.75705H3.46132C2.99709 3.75705 2.55187 3.94146 2.22361 4.26972C1.89535 4.59798 1.71094 5.0432 1.71094 5.50743V13.0091C1.71094 13.4733 1.89535 13.9185 2.22361 14.2468C2.55187 14.575 2.99709 14.7594 3.46132 14.7594H10.963C11.4272 14.7594 11.8724 14.575 12.2007 14.2468C12.5289 13.9185 12.7133 13.4733 12.7133 13.0091V6.48608C12.7133 6.43662 12.6986 6.38828 12.6711 6.34717C12.6436 6.30606 12.6046 6.27403 12.5589 6.25513C12.5132 6.23623 12.4629 6.2313 12.4144 6.24097C12.3659 6.25065 12.3213 6.27449 12.2864 6.30948Z" fill="black"/>
</svg>