<svg xmlns="http://www.w3.org/2000/svg" width="35" height="35" viewBox="0 0 60 60" fill="none">
  <path fill-rule="evenodd" clip-rule="evenodd" d="M35.1801 6.80097V6.80099L35.6705 11.7047C35.8338 13.3383 35.9155 14.155 36.4683 14.384C37.0211 14.613 37.6564 14.0932 38.927 13.0536L42.7412 9.93296C43.4069 9.38824 43.7398 9.11589 44.1247 9.13508C44.5095 9.15427 44.8136 9.4584 45.4219 10.0667L49.9333 14.578C50.5415 15.1863 50.8456 15.4904 50.8648 15.8752C50.884 16.2601 50.6117 16.593 50.067 17.2587L46.9462 21.073C45.9066 22.3436 45.3868 22.9788 45.6158 23.5317C45.8448 24.0845 46.6616 24.1662 48.2951 24.3295L53.199 24.8199C54.0549 24.9055 54.4829 24.9483 54.7415 25.234C55 25.5197 55 25.9498 55 26.81V33.19C55 34.0502 55 34.4803 54.7415 34.766C54.4829 35.0517 54.0549 35.0945 53.199 35.1801L48.2961 35.6704C46.6625 35.8337 45.8458 35.9154 45.6168 36.4682C45.3878 37.021 45.9076 37.6563 46.9472 38.9269L50.0671 42.7402C50.6118 43.4059 50.8841 43.7388 50.8649 44.1236C50.8457 44.5085 50.5416 44.8126 49.9334 45.4209L45.422 49.9322C44.8137 50.5405 44.5096 50.8446 44.1248 50.8638C43.7399 50.883 43.4071 50.6106 42.7413 50.0659L38.9271 46.9453C37.6565 45.9057 37.0212 45.3859 36.4684 45.6149C35.9156 45.8439 35.8339 46.6606 35.6706 48.2942L35.1801 53.199C35.0945 54.0549 35.0517 54.4829 34.766 54.7415C34.4803 55 34.0502 55 33.19 55H26.81C25.9498 55 25.5197 55 25.234 54.7415C24.9483 54.4829 24.9055 54.0549 24.8199 53.199L24.3295 48.2951C24.1662 46.6616 24.0845 45.8448 23.5317 45.6158C22.9789 45.3869 22.3436 45.9067 21.073 46.9462L17.2586 50.0671C16.5928 50.6118 16.26 50.8841 15.8751 50.8649C15.4903 50.8457 15.1862 50.5416 14.5779 49.9334L10.0665 45.422C9.45828 44.8137 9.15416 44.5096 9.13496 44.1248C9.11577 43.7399 9.38813 43.4071 9.93284 42.7413L13.0536 38.927C14.0932 37.6564 14.613 37.0211 14.384 36.4683C14.155 35.9155 13.3382 35.8338 11.7047 35.6705L6.80099 35.1801H6.80097C5.94505 35.0945 5.51709 35.0517 5.25855 34.766C5 34.4803 5 34.0502 5 33.19V26.81C5 25.9498 5 25.5197 5.25855 25.234C5.51709 24.9483 5.94505 24.9055 6.80097 24.8199H6.80099L11.7057 24.3294C13.3392 24.1661 14.156 24.0844 14.3849 23.5316C14.6139 22.9788 14.0941 22.3435 13.0546 21.0729L9.93295 17.2576C9.38824 16.5918 9.11589 16.259 9.13508 15.8741C9.15427 15.4893 9.4584 15.1852 10.0667 14.5769L14.578 10.0655C15.1863 9.45727 15.4904 9.15314 15.8752 9.13395C16.2601 9.11475 16.593 9.38711 17.2587 9.93182L21.0731 13.0527C22.3437 14.0922 22.979 14.612 23.5318 14.383C24.0846 14.1541 24.1663 13.3373 24.3296 11.7037L24.8199 6.80099V6.80097C24.9055 5.94505 24.9483 5.51709 25.234 5.25855C25.5197 5 25.9498 5 26.81 5H33.19C34.0502 5 34.4803 5 34.766 5.25855C35.0517 5.51709 35.0945 5.94505 35.1801 6.80097ZM30 40C35.5228 40 40 35.5228 40 30C40 24.4772 35.5228 20 30 20C24.4772 20 20 24.4772 20 30C20 35.5228 24.4772 40 30 40Z" fill="#7E869E" fill-opacity="0.25"/>
  <path d="M35.1801 6.80099H34.5801V6.83092L34.5831 6.86069L35.1801 6.80099ZM35.1801 6.80097H35.7801V6.77105L35.7771 6.74127L35.1801 6.80097ZM35.6705 11.7047L35.0734 11.7644L35.6705 11.7047ZM36.4683 14.384L36.6979 13.8297V13.8297L36.4683 14.384ZM38.927 13.0536L38.5471 12.5893V12.5893L38.927 13.0536ZM42.7412 9.93296L42.3612 9.46858L42.7412 9.93296ZM44.1247 9.13508L44.0948 9.73434L44.1247 9.13508ZM45.4219 10.0667L44.9976 10.4909L45.4219 10.0667ZM49.9333 14.578L49.509 15.0023L49.9333 14.578ZM50.8648 15.8752L51.4641 15.8454V15.8454L50.8648 15.8752ZM50.067 17.2587L49.6026 16.8788L50.067 17.2587ZM46.9462 21.073L46.4818 20.693L46.9462 21.073ZM45.6158 23.5317L45.0615 23.7613V23.7613L45.6158 23.5317ZM48.2951 24.3295L48.2354 24.9265L48.2951 24.3295ZM53.199 24.8199L53.2587 24.2229L53.199 24.8199ZM54.7415 25.234L54.2966 25.6366L54.2966 25.6366L54.7415 25.234ZM54.7415 34.766L54.2966 34.3634L54.2966 34.3634L54.7415 34.766ZM53.199 35.1801L53.2587 35.7771L53.199 35.1801ZM48.2961 35.6704L48.2364 35.0734L48.2961 35.6704ZM45.6168 36.4682L45.0624 36.2386V36.2386L45.6168 36.4682ZM46.9472 38.9269L47.4115 38.547L46.9472 38.9269ZM50.0671 42.7402L49.6027 43.1201L50.0671 42.7402ZM50.8649 44.1236L51.4642 44.1535V44.1535L50.8649 44.1236ZM44.1248 50.8638L44.1547 51.4631H44.1547L44.1248 50.8638ZM42.7413 50.0659L42.3614 50.5303L42.7413 50.0659ZM38.9271 46.9453L39.3071 46.4809L38.9271 46.9453ZM36.4684 45.6149L36.698 46.1692V46.1692L36.4684 45.6149ZM35.6706 48.2942L35.0736 48.2345L35.6706 48.2942ZM35.1801 53.199L35.7771 53.2587L35.1801 53.199ZM34.766 54.7415L34.3634 54.2966L34.3634 54.2966L34.766 54.7415ZM25.234 54.7415L25.6366 54.2966L25.6366 54.2966L25.234 54.7415ZM24.8199 53.199L24.2229 53.2587L24.8199 53.199ZM24.3295 48.2951L23.7325 48.3548L24.3295 48.2951ZM23.5317 45.6158L23.7613 45.0615H23.7613L23.5317 45.6158ZM21.073 46.9462L21.4529 47.4106L21.073 46.9462ZM17.2586 50.0671L17.6385 50.5314H17.6385L17.2586 50.0671ZM15.8751 50.8649L15.8452 51.4642H15.8452L15.8751 50.8649ZM14.5779 49.9334L15.0022 49.5091L14.5779 49.9334ZM10.0665 45.422L9.64227 45.8463L10.0665 45.422ZM9.13496 44.1248L8.53571 44.1547L9.13496 44.1248ZM9.93284 42.7413L9.46846 42.3614H9.46846L9.93284 42.7413ZM13.0536 38.927L12.5892 38.5471H12.5892L13.0536 38.927ZM14.384 36.4683L13.8297 36.6979H13.8297L14.384 36.4683ZM11.7047 35.6705L11.7644 35.0734H11.7644L11.7047 35.6705ZM6.80099 35.1801L6.86069 34.5831L6.83092 34.5801H6.80099V35.1801ZM6.80097 35.1801L6.74127 35.7771L6.77105 35.7801H6.80097V35.1801ZM5.25855 34.766L5.70342 34.3634H5.70342L5.25855 34.766ZM5.25855 25.234L5.70342 25.6366H5.70342L5.25855 25.234ZM6.80097 24.8199V24.2199H6.77105L6.74127 24.2229L6.80097 24.8199ZM6.80099 24.8199V25.4199H6.83092L6.86069 25.4169L6.80099 24.8199ZM11.7057 24.3294L11.7654 24.9265H11.7654L11.7057 24.3294ZM14.3849 23.5316L14.9393 23.7612L14.3849 23.5316ZM13.0546 21.0729L13.5189 20.6929L13.0546 21.0729ZM9.93295 17.2576L9.46858 17.6375V17.6375L9.93295 17.2576ZM9.13508 15.8741L9.73434 15.904L9.13508 15.8741ZM15.8752 9.13395L15.9051 9.7332L15.8752 9.13395ZM17.2587 9.93182L17.6387 9.46745L17.2587 9.93182ZM21.0731 13.0527L21.453 12.5883V12.5883L21.0731 13.0527ZM23.5318 14.383L23.3022 13.8287L23.5318 14.383ZM24.3296 11.7037L24.9266 11.7635V11.7635L24.3296 11.7037ZM24.8199 6.80099L25.4169 6.86069L25.4199 6.83092V6.80099H24.8199ZM24.8199 6.80097L24.2229 6.74127L24.2199 6.77105V6.80097H24.8199ZM25.234 5.25855L25.6366 5.70342V5.70342L25.234 5.25855ZM34.766 5.25855L34.3634 5.70342V5.70342L34.766 5.25855ZM35.7801 6.80099V6.80097H34.5801V6.80099H35.7801ZM36.2675 11.645L35.7771 6.74129L34.5831 6.86069L35.0734 11.7644L36.2675 11.645ZM36.6979 13.8297C36.6917 13.8271 36.6015 13.8075 36.5052 13.4247C36.4087 13.041 36.3512 12.4821 36.2675 11.645L35.0734 11.7644C35.1531 12.5609 35.2181 13.2271 35.3415 13.7175C35.4651 14.2087 35.6921 14.7119 36.2387 14.9383L36.6979 13.8297ZM38.5471 12.5893C37.896 13.122 37.4601 13.4765 37.1206 13.6796C36.7818 13.8822 36.7042 13.8323 36.6979 13.8297L36.2387 14.9383C36.7853 15.1647 37.3017 14.9694 37.7364 14.7095C38.1704 14.45 38.6874 14.0249 39.307 13.518L38.5471 12.5893ZM42.3612 9.46858L38.5471 12.5893L39.307 13.518L43.1211 10.3973L42.3612 9.46858ZM44.1545 8.53583C43.7927 8.51778 43.4903 8.64538 43.2208 8.81342C42.9658 8.9724 42.6817 9.20638 42.3612 9.46858L43.1211 10.3973C43.4664 10.1148 43.6816 9.94026 43.8557 9.83168C44.0153 9.73217 44.0718 9.73319 44.0948 9.73434L44.1545 8.53583ZM45.8461 9.64239C45.5534 9.34961 45.2939 9.08851 45.056 8.90496C44.8046 8.71093 44.5164 8.55387 44.1545 8.53583L44.0948 9.73434C44.1178 9.73548 44.174 9.74008 44.3229 9.85499C44.4854 9.98035 44.6821 10.1754 44.9976 10.4909L45.8461 9.64239ZM50.3575 14.1538L45.8461 9.64239L44.9976 10.4909L49.509 15.0023L50.3575 14.1538ZM51.4641 15.8454C51.446 15.4835 51.289 15.1953 51.0949 14.9439C50.9114 14.706 50.6503 14.4466 50.3575 14.1538L49.509 15.0023C49.8245 15.3178 50.0196 15.5145 50.1449 15.677C50.2598 15.8259 50.2644 15.8821 50.2656 15.9051L51.4641 15.8454ZM50.5313 17.6387C50.7935 17.3182 51.0275 17.0341 51.1865 16.7791C51.3545 16.5096 51.4821 16.2072 51.4641 15.8454L50.2656 15.9051C50.2667 15.9281 50.2677 15.9846 50.1682 16.1442C50.0596 16.3183 49.8851 16.5335 49.6026 16.8788L50.5313 17.6387ZM47.4106 21.4529L50.5313 17.6387L49.6026 16.8788L46.4818 20.693L47.4106 21.4529ZM46.1702 23.3021C46.1676 23.2958 46.1177 23.2182 46.3203 22.8794C46.5233 22.5399 46.8779 22.104 47.4106 21.4529L46.4818 20.693C45.975 21.3125 45.5499 21.8296 45.2904 22.2635C45.0304 22.6983 44.8351 23.2147 45.0615 23.7613L46.1702 23.3021ZM48.3548 23.7325C47.5178 23.6488 46.9588 23.5913 46.5752 23.4948C46.1923 23.3985 46.1727 23.3083 46.1702 23.3021L45.0615 23.7613C45.2879 24.3079 45.7912 24.5349 46.2824 24.6585C46.7727 24.7819 47.4389 24.8469 48.2354 24.9265L48.3548 23.7325ZM53.2587 24.2229L48.3548 23.7325L48.2354 24.9265L53.1393 25.4169L53.2587 24.2229ZM55.1863 24.8314C54.9432 24.5628 54.6392 24.4391 54.3298 24.3674C54.0371 24.2995 53.6707 24.2641 53.2587 24.2229L53.1393 25.4169C53.5832 25.4613 53.8588 25.49 54.0587 25.5364C54.2419 25.5789 54.2811 25.6195 54.2966 25.6366L55.1863 24.8314ZM55.6 26.81C55.6 26.3959 55.6012 26.0278 55.5628 25.7298C55.5222 25.4149 55.4294 25.1 55.1863 24.8314L54.2966 25.6366C54.312 25.6537 54.3486 25.6967 54.3726 25.8832C54.3988 26.0868 54.4 26.3638 54.4 26.81H55.6ZM55.6 33.19V26.81H54.4V33.19H55.6ZM55.1863 35.1686C55.4294 34.9 55.5222 34.5851 55.5628 34.2702C55.6012 33.9722 55.6 33.6041 55.6 33.19H54.4C54.4 33.6362 54.3988 33.9132 54.3726 34.1168C54.3486 34.3033 54.312 34.3463 54.2966 34.3634L55.1863 35.1686ZM53.2587 35.7771C53.6707 35.7359 54.0371 35.7005 54.3298 35.6326C54.6392 35.5609 54.9432 35.4372 55.1863 35.1686L54.2966 34.3634C54.2811 34.3805 54.2419 34.4211 54.0587 34.4636C53.8588 34.51 53.5832 34.5387 53.1393 34.5831L53.2587 35.7771ZM48.3558 36.2674L53.2587 35.7771L53.1393 34.5831L48.2364 35.0734L48.3558 36.2674ZM46.1711 36.6978C46.1737 36.6916 46.1933 36.6014 46.5761 36.5051C46.9597 36.4086 47.5187 36.3511 48.3558 36.2674L48.2364 35.0734C47.4399 35.153 46.7737 35.218 46.2833 35.3414C45.7921 35.465 45.2888 35.692 45.0624 36.2386L46.1711 36.6978ZM47.4115 38.547C46.8788 37.8959 46.5242 37.46 46.3212 37.1205C46.1186 36.7817 46.1685 36.7041 46.1711 36.6978L45.0624 36.2386C44.836 36.7852 45.0313 37.3016 45.2913 37.7364C45.5508 38.1703 45.9759 38.6874 46.4828 39.3069L47.4115 38.547ZM50.5314 42.3602L47.4115 38.547L46.4828 39.3069L49.6027 43.1201L50.5314 42.3602ZM51.4642 44.1535C51.4822 43.7917 51.3546 43.4893 51.1866 43.2198C51.0276 42.9648 50.7936 42.6807 50.5314 42.3602L49.6027 43.1201C49.8852 43.4654 50.0598 43.6806 50.1683 43.8547C50.2679 44.0143 50.2668 44.0707 50.2657 44.0938L51.4642 44.1535ZM50.3576 45.8451C50.6504 45.5523 50.9115 45.2929 51.0951 45.055C51.2891 44.8036 51.4462 44.5154 51.4642 44.1535L50.2657 44.0938C50.2645 44.1168 50.2599 44.173 50.145 44.3219C50.0197 44.4844 49.8246 44.6811 49.5091 44.9966L50.3576 45.8451ZM45.8463 50.3565L50.3576 45.8451L49.5091 44.9966L44.9977 49.508L45.8463 50.3565ZM44.1547 51.4631C44.5165 51.445 44.8047 51.288 45.0562 51.0939C45.294 50.9104 45.5535 50.6493 45.8463 50.3565L44.9977 49.508C44.6823 49.8234 44.4855 50.0185 44.3231 50.1439C44.1741 50.2588 44.1179 50.2634 44.0949 50.2646L44.1547 51.4631ZM42.3614 50.5303C42.6818 50.7925 42.966 51.0265 43.2209 51.1855C43.4904 51.3535 43.7928 51.4811 44.1547 51.4631L44.0949 50.2646C44.0719 50.2657 44.0155 50.2667 43.8559 50.1672C43.6817 50.0586 43.4665 49.8841 43.1212 49.6016L42.3614 50.5303ZM38.5472 47.4096L42.3614 50.5303L43.1212 49.6016L39.3071 46.4809L38.5472 47.4096ZM36.698 46.1692C36.7043 46.1666 36.7819 46.1167 37.1207 46.3193C37.4602 46.5223 37.8961 46.8769 38.5472 47.4096L39.3071 46.4809C38.6876 45.974 38.1705 45.5489 37.7365 45.2894C37.3018 45.0294 36.7854 44.8341 36.2388 45.0605L36.698 46.1692ZM36.2676 48.3539C36.3513 47.5168 36.4088 46.9578 36.5053 46.5742C36.6016 46.1914 36.6918 46.1718 36.698 46.1692L36.2388 45.0605C35.6922 45.2869 35.4652 45.7902 35.3416 46.2814C35.2182 46.7718 35.1532 47.438 35.0736 48.2345L36.2676 48.3539ZM35.7771 53.2587L36.2676 48.3539L35.0736 48.2345L34.5831 53.1393L35.7771 53.2587ZM35.1686 55.1863C35.4372 54.9432 35.5609 54.6392 35.6326 54.3298C35.7005 54.0371 35.7359 53.6707 35.7771 53.2587L34.5831 53.1393C34.5387 53.5832 34.51 53.8588 34.4636 54.0587C34.4211 54.2419 34.3805 54.2811 34.3634 54.2966L35.1686 55.1863ZM33.19 55.6C33.6041 55.6 33.9722 55.6012 34.2702 55.5628C34.5851 55.5222 34.9 55.4294 35.1686 55.1863L34.3634 54.2966C34.3463 54.312 34.3033 54.3486 34.1168 54.3726C33.9132 54.3988 33.6362 54.4 33.19 54.4V55.6ZM26.81 55.6H33.19V54.4H26.81V55.6ZM24.8314 55.1863C25.1 55.4294 25.4149 55.5222 25.7298 55.5628C26.0278 55.6012 26.3959 55.6 26.81 55.6V54.4C26.3638 54.4 26.0868 54.3988 25.8832 54.3726C25.6967 54.3486 25.6537 54.312 25.6366 54.2966L24.8314 55.1863ZM24.2229 53.2587C24.2641 53.6707 24.2995 54.0371 24.3674 54.3298C24.4391 54.6392 24.5628 54.9432 24.8314 55.1863L25.6366 54.2966C25.6195 54.2811 25.5789 54.2419 25.5364 54.0587C25.49 53.8588 25.4613 53.5832 25.4169 53.1393L24.2229 53.2587ZM23.7325 48.3548L24.2229 53.2587L25.4169 53.1393L24.9265 48.2354L23.7325 48.3548ZM23.3021 46.1702C23.3083 46.1728 23.3985 46.1924 23.4948 46.5752C23.5913 46.9588 23.6488 47.5178 23.7325 48.3548L24.9265 48.2354C24.8469 47.4389 24.7819 46.7728 24.6585 46.2824C24.5349 45.7912 24.3079 45.2879 23.7613 45.0615L23.3021 46.1702ZM21.4529 47.4106C22.104 46.8779 22.5399 46.5233 22.8794 46.3203C23.2182 46.1177 23.2958 46.1676 23.3021 46.1702L23.7613 45.0615C23.2147 44.8351 22.6983 45.0304 22.2635 45.2904C21.8296 45.5499 21.3125 45.975 20.693 46.4819L21.4529 47.4106ZM17.6385 50.5314L21.4529 47.4106L20.693 46.4819L16.8787 49.6027L17.6385 50.5314ZM15.8452 51.4642C16.2071 51.4822 16.5095 51.3546 16.779 51.1866C17.0339 51.0276 17.3181 50.7936 17.6385 50.5314L16.8787 49.6027C16.5334 49.8852 16.3182 50.0598 16.1441 50.1683C15.9845 50.2679 15.928 50.2668 15.905 50.2657L15.8452 51.4642ZM14.1537 50.3576C14.4464 50.6504 14.7059 50.9115 14.9438 51.0951C15.1952 51.2891 15.4834 51.4462 15.8452 51.4642L15.905 50.2657C15.882 50.2645 15.8258 50.2599 15.6769 50.145C15.5144 50.0197 15.3176 49.8246 15.0022 49.5091L14.1537 50.3576ZM9.64227 45.8463L14.1537 50.3576L15.0022 49.5091L10.4908 44.9977L9.64227 45.8463ZM8.53571 44.1547C8.55375 44.5165 8.71082 44.8047 8.90484 45.0562C9.0884 45.294 9.34949 45.5535 9.64227 45.8463L10.4908 44.9977C10.1753 44.6823 9.98024 44.4855 9.85487 44.3231C9.73996 44.1741 9.73537 44.1179 9.73422 44.0949L8.53571 44.1547ZM9.46846 42.3614C9.20626 42.6818 8.97228 42.966 8.8133 43.2209C8.64526 43.4904 8.51766 43.7928 8.53571 44.1547L9.73422 44.0949C9.73307 44.0719 9.73205 44.0155 9.83157 43.8559C9.94015 43.6817 10.1147 43.4665 10.3972 43.1212L9.46846 42.3614ZM12.5892 38.5471L9.46846 42.3614L10.3972 43.1212L13.518 39.307L12.5892 38.5471ZM13.8297 36.6979C13.8323 36.7042 13.8822 36.7818 13.6796 37.1206C13.4765 37.4601 13.1219 37.896 12.5892 38.5471L13.518 39.307C14.0249 38.6874 14.45 38.1704 14.7095 37.7364C14.9694 37.3017 15.1647 36.7853 14.9383 36.2387L13.8297 36.6979ZM11.645 36.2675C12.4821 36.3512 13.041 36.4087 13.4247 36.5052C13.8075 36.6015 13.8271 36.6917 13.8297 36.6979L14.9383 36.2387C14.7119 35.6921 14.2087 35.465 13.7174 35.3415C13.2271 35.2181 12.5609 35.1531 11.7644 35.0734L11.645 36.2675ZM6.74129 35.7771L11.645 36.2675L11.7644 35.0734L6.86069 34.5831L6.74129 35.7771ZM6.80097 35.7801H6.80099V34.5801H6.80097V35.7801ZM4.81368 35.1686C5.05676 35.4372 5.36084 35.5608 5.67022 35.6326C5.96291 35.7005 6.32927 35.7359 6.74127 35.7771L6.86068 34.5831C6.41675 34.5387 6.14118 34.51 5.94127 34.4636C5.75805 34.4211 5.71888 34.3805 5.70342 34.3634L4.81368 35.1686ZM4.4 33.19C4.4 33.6041 4.39883 33.9722 4.43724 34.2702C4.47784 34.5851 4.57059 34.9 4.81368 35.1686L5.70342 34.3634C5.68796 34.3463 5.65144 34.3033 5.6274 34.1168C5.60117 33.9132 5.6 33.6362 5.6 33.19H4.4ZM4.4 26.81V33.19H5.6V26.81H4.4ZM4.81368 24.8314C4.57059 25.1 4.47784 25.4149 4.43724 25.7298C4.39883 26.0278 4.4 26.3959 4.4 26.81H5.6C5.6 26.3638 5.60117 26.0868 5.6274 25.8832C5.65144 25.6967 5.68796 25.6537 5.70342 25.6366L4.81368 24.8314ZM6.74127 24.2229C6.32927 24.2641 5.96291 24.2995 5.67022 24.3674C5.36084 24.4391 5.05676 24.5628 4.81368 24.8314L5.70342 25.6366C5.71888 25.6195 5.75805 25.5789 5.94127 25.5364C6.14118 25.49 6.41676 25.4613 6.86068 25.4169L6.74127 24.2229ZM6.80099 24.2199H6.80097V25.4199H6.80099V24.2199ZM11.646 23.7324L6.74129 24.2229L6.86069 25.4169L11.7654 24.9265L11.646 23.7324ZM13.8306 23.302C13.828 23.3082 13.8084 23.3984 13.4256 23.4947C13.042 23.5912 12.483 23.6487 11.646 23.7324L11.7654 24.9265C12.5618 24.8468 13.228 24.7818 13.7184 24.6584C14.2096 24.5348 14.7129 24.3078 14.9393 23.7612L13.8306 23.302ZM12.5902 21.4528C13.1229 22.1039 13.4775 22.5398 13.6805 22.8793C13.8831 23.2181 13.8332 23.2957 13.8306 23.302L14.9393 23.7612C15.1657 23.2146 14.9704 22.6982 14.7104 22.2635C14.4509 21.8295 14.0258 21.3125 13.5189 20.6929L12.5902 21.4528ZM9.46858 17.6375L12.5902 21.4528L13.5189 20.6929L10.3973 16.8776L9.46858 17.6375ZM8.53583 15.8442C8.51778 16.206 8.64538 16.5085 8.81342 16.778C8.9724 17.0329 9.20638 17.3171 9.46858 17.6375L10.3973 16.8776C10.1148 16.5324 9.94026 16.3172 9.83168 16.143C9.73217 15.9834 9.73319 15.927 9.73434 15.904L8.53583 15.8442ZM9.64239 14.1526C9.34961 14.4454 9.08851 14.7049 8.90496 14.9427C8.71093 15.1942 8.55387 15.4824 8.53583 15.8442L9.73434 15.904C9.73548 15.881 9.74008 15.8247 9.85498 15.6758C9.98035 15.5134 10.1754 15.3166 10.4909 15.0012L9.64239 14.1526ZM14.1538 9.64126L9.64239 14.1526L10.4909 15.0012L15.0023 10.4898L14.1538 9.64126ZM15.8454 8.53469C15.4835 8.55274 15.1953 8.7098 14.9439 8.90382C14.706 9.08738 14.4466 9.34847 14.1538 9.64126L15.0023 10.4898C15.3178 10.1743 15.5145 9.97922 15.677 9.85385C15.8259 9.73895 15.8821 9.73435 15.9051 9.7332L15.8454 8.53469ZM17.6387 9.46745C17.3182 9.20525 17.0341 8.97127 16.7791 8.81229C16.5096 8.64425 16.2072 8.51665 15.8454 8.53469L15.9051 9.7332C15.9281 9.73206 15.9846 9.73103 16.1442 9.83055C16.3183 9.93913 16.5335 10.1137 16.8788 10.3962L17.6387 9.46745ZM21.453 12.5883L17.6387 9.46745L16.8788 10.3962L20.6931 13.517L21.453 12.5883ZM23.3022 13.8287C23.2959 13.8313 23.2183 13.8812 22.8795 13.6786C22.54 13.4756 22.1041 13.121 21.453 12.5883L20.6931 13.517C21.3127 14.0239 21.8297 14.449 22.2637 14.7085C22.6984 14.9685 23.2148 15.1638 23.7614 14.9374L23.3022 13.8287ZM23.7326 11.644C23.6489 12.4811 23.5914 13.0401 23.4949 13.4237C23.3986 13.8065 23.3084 13.8261 23.3022 13.8287L23.7614 14.9374C24.308 14.711 24.535 14.2077 24.6586 13.7165C24.782 13.2261 24.847 12.5599 24.9266 11.7635L23.7326 11.644ZM24.2229 6.74129L23.7326 11.644L24.9266 11.7635L25.4169 6.86069L24.2229 6.74129ZM24.2199 6.80097V6.80099H25.4199V6.80097H24.2199ZM24.8314 4.81368C24.5628 5.05676 24.4391 5.36084 24.3674 5.67022C24.2995 5.96291 24.2641 6.32927 24.2229 6.74127L25.4169 6.86068C25.4613 6.41676 25.49 6.14118 25.5364 5.94127C25.5789 5.75805 25.6195 5.71888 25.6366 5.70342L24.8314 4.81368ZM26.81 4.4C26.3959 4.4 26.0278 4.39883 25.7298 4.43724C25.4149 4.47784 25.1 4.57059 24.8314 4.81368L25.6366 5.70342C25.6537 5.68796 25.6967 5.65144 25.8832 5.6274C26.0868 5.60117 26.3638 5.6 26.81 5.6V4.4ZM33.19 4.4H26.81V5.6H33.19V4.4ZM35.1686 4.81368C34.9 4.57059 34.5851 4.47784 34.2702 4.43724C33.9722 4.39883 33.6041 4.4 33.19 4.4V5.6C33.6362 5.6 33.9132 5.60117 34.1168 5.6274C34.3033 5.65144 34.3463 5.68796 34.3634 5.70342L35.1686 4.81368ZM35.7771 6.74127C35.7359 6.32927 35.7005 5.96291 35.6326 5.67022C35.5609 5.36084 35.4372 5.05676 35.1686 4.81368L34.3634 5.70342C34.3805 5.71888 34.4211 5.75805 34.4636 5.94127C34.51 6.14118 34.5387 6.41676 34.5831 6.86068L35.7771 6.74127ZM39.4 30C39.4 35.1915 35.1915 39.4 30 39.4V40.6C35.8542 40.6 40.6 35.8542 40.6 30H39.4ZM30 20.6C35.1915 20.6 39.4 24.8085 39.4 30H40.6C40.6 24.1458 35.8542 19.4 30 19.4V20.6ZM20.6 30C20.6 24.8085 24.8085 20.6 30 20.6V19.4C24.1458 19.4 19.4 24.1458 19.4 30H20.6ZM30 39.4C24.8085 39.4 20.6 35.1915 20.6 30H19.4C19.4 35.8542 24.1458 40.6 30 40.6V39.4Z" fill="#33363F"/>
</svg>